# xmcd
#
# Track frame offsets: 
#        150
#        14462
#        37338
#        57432
#        78189
#        94698
#        110769
#        127823
#        146820
#        165490
#        185838
#
# Disc length: 2885 seconds
#
# Revision: 1
# Processed by: cddbd v1.5.2PL0 Copyright (c) Steve Scherf et al.
# Submitted via: ExactAudioCopy v0.99pb5
#
DISCID=980b430b
DTITLE=Jason Boland and The Stragglers - Rancho Alto
DYEAR=2011
DGENRE=Country
TTITLE0=Down Here In The Hole
TTITLE1=Every Moment I'm Gone
TTITLE2=False Accuser's Lament
TTITLE3=Between 11-2
TTITLE4=Pushing Luck
TTITLE5=Fences
TTITLE6=Mary Ellen's Greenhouse
TTITLE7=Obsessed
TTITLE8=Woody's Road
TTITLE9=Forever Together Again
TTITLE10=Farmer's Luck
EXTD=YEAR: 2011
EXTT0=
EXTT1=
EXTT2=
EXTT3=
EXTT4=
EXTT5=
EXTT6=
EXTT7=
EXTT8=
EXTT9=
EXTT10=
PLAYORDER=
